<?xml version="1.0" encoding="utf-8"?>
<!-- Generator: Adobe Illustrator 25.4.1, SVG Export Plug-In . SVG Version: 6.00 Build 0)  -->
<svg version="1.1" id="Layer_1" xmlns="http://www.w3.org/2000/svg" xmlns:xlink="http://www.w3.org/1999/xlink" x="0px" y="0px"
	 viewBox="0 0 163.8 31.5" style="enable-background:new 0 0 163.8 31.5;" xml:space="preserve">
<style type="text/css">
	.st0{fill:#FFFFFF;}
</style>
<path class="st0" d="M34.1,19.8h-2.1v-4.3h2.1V19.8z M132.3,20.3h-2V9h2V20.3z M110.3,12.6h-2V9h2V12.6z M76.4,11.1V5.6h-3.2V0h-9.3
	v5.6h-7.3l-2.8,9.9L51,5.6h-9l7.2,18.8l-2.6,7.1h9.1l8.2-21.4v14.4h9.4V11.1H76.4z M163.8,24.6v-14c0-1.6-0.7-2.9-2-4.1
	c-1.3-1.1-2.6-1.6-4.2-1.6c-2.6,0-4.4,0.7-5.7,2l0-1.8H143v19.3h9.3V11.1h1.9v13.5H163.8z M43.2,24.6V12.1c0-2.5-1-4.3-2.9-5.7
	c-1.8-1.3-4-1.9-6.8-1.9c-3.3,0-5.8,0.7-7.7,2c-1.6,1.1-2.4,2.4-2.4,3.9v0.9h8.8V9h2v3.6l-4.5,0.1c-4.6,0.1-6.9,1.9-7,5.5
	c-0.1,4.5,2,6.7,6.1,6.7c2.5,0,4.4-0.9,5.7-2.8l0,2.5C34.5,24.6,43.2,24.6,43.2,24.6z M120.1,14.7c-0.1-3.2-0.8-5.6-2-7.2
	c-1.7-2-4.5-3-8.6-3c-3.5,0-6,0.5-7.5,1.5c-2.2,1.5-3.2,4.4-3.2,8.6c0,4.1,1.1,7,3.4,8.5c1.5,1.1,4,1.6,7.3,1.6
	c3.2,0,5.6-0.5,7.3-1.6c1.5-1,2.5-2.5,3.1-4.6c0.1-0.4,0.2-0.8,0.2-1.1h-9.6v2.7h-2v-4.5H120C120,15.4,120.1,15,120.1,14.7
	 M142,14.7c0-4.2-1.1-7-3.2-8.5c-1.5-1-4-1.6-7.5-1.6c-3.5,0-6,0.5-7.5,1.6c-2.1,1.5-3.2,4.4-3.2,8.5c0,4.3,1.1,7.1,3.2,8.6
	c1.5,1,4,1.6,7.5,1.6c3.5,0,6-0.5,7.5-1.6C141,21.7,142,18.9,142,14.7 M21.9,6.6c0.1-1.8-0.5-3.4-1.7-4.6C19.1,0.6,17.5,0,15.5,0H0
	v24.6h9.8v-9.1H12v9.1h9.9v-7.8c0-1.4-0.3-2.4-0.8-3.1c-0.8-0.9-1.5-1.5-2.3-1.8c1.1-0.6,1.8-1.3,2.2-1.9C21.5,9.2,21.8,8,21.9,6.6
	 M98.1,24.6V10.1c0-1.5-0.6-2.7-1.7-3.7c-1.1-1-2.4-1.5-4-1.5c-1.1,0-2.2,0.2-3.3,0.6c-1.1,0.4-1.9,0.9-2.5,1.4V0h-9.4v24.6h9.4
	V11.1h2v13.5H98.1z M12,10.1H9.9V4.7H12L12,10.1L12,10.1z"/>
</svg>
