<svg id="Layer_1" data-name="Layer 1" xmlns="http://www.w3.org/2000/svg" xmlns:xlink="http://www.w3.org/1999/xlink" viewBox="0 0 1900 1200"><defs><style>.cls-1{stroke:#def2fc;stroke-miterlimit:10;fill:url(#linear-gradient);}.cls-2{fill:#fff;opacity:0.3;}</style><linearGradient id="linear-gradient" x1="950" y1="1200" x2="950" gradientUnits="userSpaceOnUse"><stop offset="0" stop-color="#bdc6e5"/><stop offset="1" stop-color="#def3fd"/></linearGradient></defs><rect class="cls-1" width="1900" height="1200"/><path class="cls-2" d="M1390.69,313.09c-53.57-7.4-160.38,2.75-201.82,37.5-12.4,10.39-21.43,61-21.43,61s-117.33-14.91-152.38,0c-21.06,9-63.49,65.94-63.49,65.94S694.06,452,669,518.84c-12.54,33.46,62,90.85,93,108.46,46.24,26.21,209.57,35.87,209.57,35.87S835.2,709.85,846.25,745.71c21.38,69.43,290.53-4.48,290.53-4.48s131.12,54.48,175.1,44.28C1362.07,773.86,1469,652.17,1469,652.17s148.84,60.36,201.58,63.5c118.92,7.06,380.67-7.62,468.26-88.37,16.15-14.89,23.25-84.76,23.25-84.76s93.56-3.42,98.41-28.57c7.31-37.91-84.53-84.54-121.66-95.13-124.32-35.45-452.94,55.45-452.94,55.45s49.66-31.2,41.27-53.75c-11.21-30.13-85.33-37.48-117.46-36.73-38.52.9-194.68,35-194.68,35s84.84-33.51,82.54-58.73C1495.21,333.94,1416.72,316.68,1390.69,313.09Z"/><path class="cls-2" d="M-86.48-17.33C4.66-49.28,275-75.91,298.24,17.85c9.45,38.17-131.91,85.73-131.91,85.73s154.28-67.66,282.88,10.11c65.19,39.42,38.1,55.85,38.1,55.85s91.26-25,120.91-17.59c27.1,6.74,94.57,38.38,90.13,66-4.13,25.74-94.53,44-94.53,44s58.32,21.1,55,37.37c-13.44,65.25-198.17,70.9-261.61,50.57-43.27-13.87-153.89-96.73-153.89-96.73s-22.75,83.38-108.49,90C69,348.12,65.21,299.24,65.21,299.24S44.91,430.1-86.48,424.56c-99.65-4.21-90.91-114.48-90.91-114.48s-141.17,71.2-182.47,48.37c-22.66-12.53-40.09-74.73-30.78-98.89,19.05-49.43,182.47-107.76,182.47-107.76s-91.93-22.31-92.33-48.37C-301.46,42-144.46,3-86.48-17.33Z"/><path class="cls-2" d="M518.56,361.84c15.07-40.58,53.48-89.74,147.61-90.48,50.8-.4,111.66,7.38,126.91,68.12,14.21,56.6-31.67,93.79-31.67,93.79s84.86-38,192.07-25.4c80.71,9.52,110.91,72.26,122,96.82,7.33,16.29,0,71.43,0,71.43s74.78-38.77,111.29,2.25c23.77,26.71,38.32,114.8-63.5,136.51C1010,739,979.71,672.34,979.71,672.34s13.39,21.71-12,68.86c-17.45,32.39-53.06,72.72-150.12,84.55-53.09,6.48-169.54-52.81-186.33-103.6-24.09-72.89-23-105.82-23-105.82s-82,88.48-177,45.95C378.56,638.72,336,574.54,363,511c36.94-86.93,154-55.55,154-55.55S493.36,429.66,518.56,361.84Z"/></svg>