<svg xmlns="http://www.w3.org/2000/svg" viewBox="0 0 1900 826.24"><defs><style>.cls-1{fill:#fff;opacity:0.3;}</style></defs><g id="Layer_2" data-name="Layer 2"><g id="Layer_1-2" data-name="Layer 1"><path class="cls-1" d="M1900,427.17c-111.93,18.86-214.07,47.12-214.07,47.12s49.66-31.2,41.27-53.75c-11.21-30.13-85.33-37.48-117.46-36.73-38.52.9-194.68,35-194.68,35s84.84-33.51,82.54-58.73c-2.39-26.17-80.88-43.43-106.91-47-53.57-7.4-160.38,2.75-201.82,37.5-12.4,10.39-21.43,61-21.43,61s-117.33-14.91-152.38,0c-21.06,9-63.49,65.94-63.49,65.94S694.06,452,669,518.84c-12.54,33.46,62,90.85,93,108.46,46.24,26.21,209.57,35.87,209.57,35.87S835.2,709.85,846.25,745.71c21.38,69.43,290.53-4.48,290.53-4.48s131.12,54.48,175.1,44.28C1362.07,773.86,1469,652.17,1469,652.17s148.84,60.36,201.58,63.5c55.89,3.31,143.32,1.83,229.39-9Z"/><path class="cls-1" d="M0,402.83c54.71-36,65.21-103.59,65.21-103.59s3.82,48.88,69.58,43.82c85.74-6.6,108.49-90,108.49-90s110.62,82.86,153.89,96.73c63.44,20.33,248.17,14.68,261.61-50.57,3.36-16.27-55-37.37-55-37.37s90.4-18.23,94.53-44c4.44-27.57-63-59.21-90.13-66-29.65-7.37-120.91,17.59-120.91,17.59s27.09-16.43-38.1-55.85c-99.29-60-213.87-33.4-260.95-18.13,39.31-15.16,117.07-49.08,110-77.71A51.76,51.76,0,0,0,290,0H0Z"/><path class="cls-1" d="M518.56,361.84c15.07-40.58,53.48-89.74,147.61-90.48,50.8-.4,111.66,7.38,126.91,68.12,14.21,56.6-31.67,93.79-31.67,93.79s84.86-38,192.07-25.4c80.71,9.52,110.91,72.26,122,96.82,7.33,16.29,0,71.43,0,71.43s74.78-38.77,111.29,2.25c23.77,26.71,38.32,114.8-63.5,136.51C1010,739,979.71,672.34,979.71,672.34s13.39,21.71-12,68.86c-17.45,32.39-53.06,72.72-150.12,84.55-53.09,6.48-169.54-52.81-186.33-103.6-24.09-72.89-23-105.82-23-105.82s-82,88.48-177,45.95C378.56,638.72,336,574.54,363,511c36.94-86.93,154-55.55,154-55.55S493.36,429.66,518.56,361.84Z"/></g></g></svg>